<?xml version="1.0" encoding="UTF-8" standalone="no" ?>
<!DOCTYPE svg PUBLIC "-//W3C//DTD SVG 1.1//EN" "http://www.w3.org/Graphics/SVG/1.1/DTD/svg11.dtd">
<svg xmlns="http://www.w3.org/2000/svg" xmlns:xlink="http://www.w3.org/1999/xlink" version="1.1" width="273.6672" height="98.4824" xml:space="preserve">
<desc>Created with Fabric.js 1.6.0-rc.1</desc>
<defs></defs>
  <g transform="translate(94.72 36.72)">
   <text font-family="Harrington" font-size="40" font-weight="normal" style="stroke: none; stroke-width: 1; stroke-dasharray: none; stroke-linecap: butt; stroke-linejoin: miter; stroke-miterlimit: 10; fill: #000000; fill-rule: nonzero; opacity: 1;" ><tspan x="-84.22" y="8.98" style="stroke: none; stroke-width: 0; stroke-dasharray: none; stroke-linecap: butt; stroke-linejoin: miter; stroke-miterlimit: 4; fill: #000000; fill-rule: ; opacity: 1;">c</tspan><tspan x="-64.45" y="8.98" style="stroke: none; stroke-width: 0; stroke-dasharray: none; stroke-linecap: butt; stroke-linejoin: miter; stroke-miterlimit: 4; fill: #000000; fill-rule: ; opacity: 1;">o</tspan><tspan x="-41.52" y="8.98" style="stroke: none; stroke-width: 0; stroke-dasharray: none; stroke-linecap: butt; stroke-linejoin: miter; stroke-miterlimit: 4; fill: #000000; fill-rule: ; opacity: 1;">f</tspan><tspan x="-29.88" y="8.98" style="stroke: none; stroke-width: 0; stroke-dasharray: none; stroke-linecap: butt; stroke-linejoin: miter; stroke-miterlimit: 4; fill: #000000; fill-rule: ; opacity: 1;">f</tspan><tspan x="-18.24" y="8.98" style="stroke: none; stroke-width: 0; stroke-dasharray: none; stroke-linecap: butt; stroke-linejoin: miter; stroke-miterlimit: 4; fill: #000000; fill-rule: ; opacity: 1;">e</tspan><tspan x="1.41" y="8.98" style="stroke: none; stroke-width: 0; stroke-dasharray: none; stroke-linecap: butt; stroke-linejoin: miter; stroke-miterlimit: 4; fill: #000000; fill-rule: ; opacity: 1;">e</tspan><tspan x="21.05" y="8.98" style="stroke: none; stroke-width: 0; stroke-dasharray: none; stroke-linecap: butt; stroke-linejoin: miter; stroke-miterlimit: 4; fill: #000000; fill-rule: ; opacity: 1;"> </tspan><tspan x="31.05" y="8.98" style="stroke: none; stroke-width: 0; stroke-dasharray: none; stroke-linecap: butt; stroke-linejoin: miter; stroke-miterlimit: 4; fill: #000000; fill-rule: ; opacity: 1;">l</tspan><tspan x="41.99" y="8.98" style="stroke: none; stroke-width: 0; stroke-dasharray: none; stroke-linecap: butt; stroke-linejoin: miter; stroke-miterlimit: 4; fill: #000000; fill-rule: ; opacity: 1;">i</tspan><tspan x="52.93" y="8.98" style="stroke: none; stroke-width: 0; stroke-dasharray: none; stroke-linecap: butt; stroke-linejoin: miter; stroke-miterlimit: 4; fill: #000000; fill-rule: ; opacity: 1;">f</tspan><tspan x="64.57" y="8.98" style="stroke: none; stroke-width: 0; stroke-dasharray: none; stroke-linecap: butt; stroke-linejoin: miter; stroke-miterlimit: 4; fill: #000000; fill-rule: ; opacity: 1;">e</tspan></text>
 </g>
<g style="stroke: none; stroke-width: 1; stroke-dasharray: none; stroke-linecap: butt; stroke-linejoin: miter; stroke-miterlimit: 10; fill: none; fill-rule: nonzero; opacity: 1;" transform="translate(184.01 16) scale(0.36 0.36)" >
  <path d="M 184.364 65.876 c 0.25 0.188 0.563 0.438 1 0.625 c 4.186 -2.998 10.246 -2.938 18.18 0.125 c 7.935 3.061 7.684 11.119 -0.688 24.176 c -8.434 12.996 -15.869 20.807 -22.304 23.428 c -6.496 2.688 -10.057 4.313 -10.682 4.873 c 9.809 -1.063 18.992 -5.494 27.676 -13.181 c 9.122 -8.123 15.994 -17.68 20.617 -28.737 c 4.811 -11.558 1.375 -18.807 -10.308 -21.804 c -3.812 0.06 -7.685 0.372 -11.622 0.938 c -3.997 0.561 -7.684 1.935 -11.057 4.122 c -0.563 0.313 -0.938 0.75 -1.188 1.312 c -0.125 0.313 -0.187 0.625 -0.25 0.938 c -0.063 0.313 -0.188 0.687 -0.312 0.999 c 0 0.313 0.063 0.625 0.188 0.938 C 183.676 65.064 183.927 65.439 184.364 65.876 L 184.364 65.876" style="stroke: none; stroke-width: 1; stroke-dasharray: none; stroke-linecap: butt; stroke-linejoin: miter; stroke-miterlimit: 10; fill: #B47B2E; fill-rule: nonzero; opacity: 1;" transform=" matrix(1 0 0 1 0 0) " stroke-linecap="round" />
  <path d="M 34.674 152.154 c -14.057 -13.932 -24.865 -29.861 -32.55 -47.856 l -1.25 -1.438 C 0.313 103.11 0 103.361 0 103.673 c 0.375 15.057 6.06 29.299 17.056 42.733 c 32.112 39.047 73.159 56.852 123.076 53.543 c 14.432 -1.127 27.614 -5.563 39.672 -13.371 c 9.621 -6.248 15.306 -14.869 17.117 -25.803 c 2.063 -12.246 -1.999 -21.928 -12.182 -29.113 c -7.123 -5.061 -13.619 -4.998 -19.555 0.125 c 13.37 9.121 19.68 17.617 18.868 25.551 c -0.874 7.875 -2.937 14.307 -6.123 19.244 c -3.249 4.873 -14.744 9.371 -34.424 13.557 c -19.742 4.123 -39.171 2.436 -58.351 -4.998 C 66.099 177.58 49.23 166.586 34.674 152.154 L 34.674 152.154" style="stroke: none; stroke-width: 1; stroke-dasharray: none; stroke-linecap: butt; stroke-linejoin: miter; stroke-miterlimit: 10; fill: #B47B2E; fill-rule: nonzero; opacity: 1;" transform=" matrix(1 0 0 1 0 0) " stroke-linecap="round" />
  <path d="M 97.086 5.901 l 18.556 2.873 c 17.056 3.435 31.299 9.121 42.796 16.931 c 14.181 9.058 20.179 19.116 17.992 30.112 c -1.75 8.561 -6.997 15.557 -15.681 20.991 c -5.374 3.374 -12.12 6.124 -20.18 8.312 c -19.555 5.246 -41.046 5.498 -64.599 0.749 c -11.558 -2.375 -19.367 -4.561 -23.553 -6.624 c -5.686 -2.937 -13.433 -8.745 -23.116 -17.367 c 9.746 16.493 26.052 27.053 48.855 31.613 c 14.556 2.998 30.05 3.187 46.356 0.625 c 13.557 -2.188 25.489 -6.186 35.735 -11.872 c -1.186 9.749 -1.811 15.12 -1.999 16.12 c -1.813 12.056 -4.249 21.552 -7.31 28.425 c -3.749 8.436 -9.059 14.744 -15.994 19.057 c -7.559 4.684 -17.618 7.369 -30.175 8.059 c -23.928 1.311 -41.92 -3.625 -53.854 -14.684 c -10.496 -9.807 -16.556 -19.99 -18.243 -30.549 l -0.25 0.125 c 5.935 40.734 30.738 59.914 74.345 57.602 c 28.426 -1.498 48.106 -15.244 59.164 -41.297 c 4.062 -9.682 7.31 -21.679 9.621 -36.111 c 0.438 -3.061 1.374 -10.246 2.687 -21.427 c 2.499 -3.375 4.124 -6.873 4.811 -10.436 c 2.187 -10.933 -3.186 -21.865 -16.181 -32.798 C 153.688 13.834 137.757 6.65 118.953 2.838 C 95.4 -1.973 73.908 -0.659 54.479 6.711 c -18.617 7.123 -29.238 17.182 -31.8 30.114 c -1.937 9.122 5.81 17.931 23.116 26.489 c 11.933 5.684 25.615 10.059 41.046 13.245 c 17.993 3.622 30.925 4.934 38.859 3.872 c 11.683 -1.437 18.68 -7.559 20.867 -18.491 c 1.938 -9.497 -1.499 -18.118 -10.308 -25.804 c -8.56 -7.683 -21.305 -13.182 -38.235 -16.619 c -12.057 -2.497 -22.99 -3.498 -32.924 -2.935 c -13.808 0.812 -21.242 4.124 -22.429 9.996 l 0.188 4.998 c 0.187 0.188 0.687 0.375 1.5 0.688 l 2.374 0.438 c 0.813 0 1.437 0.061 2 0.248 c 3.623 0.689 9.121 -0.313 16.556 -2.997 c 7.622 -2.687 14.057 -3.499 19.305 -2.437 c 5.685 1.187 10.808 2.749 15.306 4.809 c 6.997 3.062 10.183 6.124 9.559 9.121 c -1.125 5.438 -9.184 8.937 -24.178 10.372 c -11.871 1.063 -21.866 0.75 -29.988 -0.874 c -9.434 -1.937 -16.056 -5.499 -19.929 -10.62 c -2.937 -4.5 -3.874 -9.31 -2.812 -14.432 c 1.5 -7.185 9.309 -12.935 23.491 -17.243 C 69.973 4.401 83.654 3.463 97.086 5.901 L 97.086 5.901" style="stroke: none; stroke-width: 1; stroke-dasharray: none; stroke-linecap: butt; stroke-linejoin: miter; stroke-miterlimit: 10; fill: #B47B2E; fill-rule: nonzero; opacity: 1;" transform=" matrix(1 0 0 1 0 0) " stroke-linecap="round" />
</g>
  <g transform="translate(128.47 75.82) scale(0.48 0.48)">
   <text font-family="Ikaros" font-size="40" font-weight="normal" style="stroke: none; stroke-width: 1; stroke-dasharray: none; stroke-linecap: butt; stroke-linejoin: miter; stroke-miterlimit: 10; fill: #615d61; fill-rule: nonzero; opacity: 1;" ><tspan x="-106.82" y="8.98" style="stroke: none; stroke-width: 0; stroke-dasharray: none; stroke-linecap: butt; stroke-linejoin: miter; stroke-miterlimit: 4; fill: #615d61; fill-rule: ; opacity: 1;">s</tspan><tspan x="-90.94" y="8.98" style="stroke: none; stroke-width: 0; stroke-dasharray: none; stroke-linecap: butt; stroke-linejoin: miter; stroke-miterlimit: 4; fill: #615d61; fill-rule: ; opacity: 1;">t</tspan><tspan x="-73.94" y="8.98" style="stroke: none; stroke-width: 0; stroke-dasharray: none; stroke-linecap: butt; stroke-linejoin: miter; stroke-miterlimit: 4; fill: #615d61; fill-rule: ; opacity: 1;">a</tspan><tspan x="-51.38" y="8.98" style="stroke: none; stroke-width: 0; stroke-dasharray: none; stroke-linecap: butt; stroke-linejoin: miter; stroke-miterlimit: 4; fill: #615d61; fill-rule: ; opacity: 1;">y</tspan><tspan x="-29.86" y="8.98" style="stroke: none; stroke-width: 0; stroke-dasharray: none; stroke-linecap: butt; stroke-linejoin: miter; stroke-miterlimit: 4; fill: #615d61; fill-rule: ; opacity: 1;"> </tspan><tspan x="-9.86" y="8.98" style="stroke: none; stroke-width: 0; stroke-dasharray: none; stroke-linecap: butt; stroke-linejoin: miter; stroke-miterlimit: 4; fill: #615d61; fill-rule: ; opacity: 1;">a</tspan><tspan x="12.7" y="8.98" style="stroke: none; stroke-width: 0; stroke-dasharray: none; stroke-linecap: butt; stroke-linejoin: miter; stroke-miterlimit: 4; fill: #615d61; fill-rule: ; opacity: 1;">w</tspan><tspan x="41.06" y="8.98" style="stroke: none; stroke-width: 0; stroke-dasharray: none; stroke-linecap: butt; stroke-linejoin: miter; stroke-miterlimit: 4; fill: #615d61; fill-rule: ; opacity: 1;">a</tspan><tspan x="63.62" y="8.98" style="stroke: none; stroke-width: 0; stroke-dasharray: none; stroke-linecap: butt; stroke-linejoin: miter; stroke-miterlimit: 4; fill: #615d61; fill-rule: ; opacity: 1;">k</tspan><tspan x="84.58" y="8.98" style="stroke: none; stroke-width: 0; stroke-dasharray: none; stroke-linecap: butt; stroke-linejoin: miter; stroke-miterlimit: 4; fill: #615d61; fill-rule: ; opacity: 1;">e</tspan></text>
 </g>
</svg>